<svg width="261" height="82" viewBox="0 0 261 82" fill="none" xmlns="http://www.w3.org/2000/svg">
<path d="M112.71 53.7349C110.964 53.7349 109.392 53.4356 107.996 52.8369C106.599 52.2133 105.501 51.3403 104.703 50.2178C103.905 49.0953 103.506 47.7858 103.506 46.2891H108.07C108.17 47.4116 108.607 48.3345 109.38 49.0579C110.178 49.7813 111.288 50.143 112.71 50.143C114.182 50.143 115.329 49.7938 116.152 49.0953C116.975 48.372 117.387 47.449 117.387 46.3265C117.387 45.4535 117.125 44.7426 116.601 44.1938C116.102 43.645 115.466 43.221 114.693 42.9217C113.945 42.6223 112.897 42.2981 111.55 41.9488C109.854 41.4999 108.469 41.0509 107.397 40.6019C106.349 40.1279 105.451 39.4046 104.703 38.4317C103.955 37.4589 103.58 36.1618 103.58 34.5404C103.58 33.0438 103.955 31.7342 104.703 30.6118C105.451 29.4893 106.499 28.6287 107.846 28.03C109.193 27.4314 110.752 27.1321 112.523 27.1321C115.042 27.1321 117.1 27.7681 118.697 29.0403C120.318 30.2875 121.216 32.0086 121.391 34.2037H116.676C116.601 33.2558 116.152 32.4451 115.329 31.7717C114.506 31.0982 113.421 30.7614 112.074 30.7614C110.852 30.7614 109.854 31.0732 109.081 31.6968C108.307 32.3204 107.921 33.2184 107.921 34.3908C107.921 35.189 108.158 35.85 108.632 36.3738C109.13 36.8727 109.754 37.2718 110.502 37.5712C111.251 37.8705 112.273 38.1948 113.571 38.544C115.292 39.0179 116.689 39.4919 117.761 39.9658C118.859 40.4397 119.782 41.1756 120.53 42.1733C121.303 43.1462 121.69 44.4557 121.69 46.102C121.69 47.4241 121.328 48.6713 120.605 49.8437C119.906 51.016 118.871 51.9639 117.499 52.6873C116.152 53.3857 114.556 53.7349 112.71 53.7349ZM145.618 42.6598C145.618 43.433 145.568 44.1315 145.468 44.7551H129.716C129.841 46.4014 130.452 47.7234 131.55 48.7212C132.647 49.7189 133.994 50.2178 135.591 50.2178C137.885 50.2178 139.507 49.2575 140.455 47.3368H145.057C144.433 49.2325 143.298 50.7915 141.652 52.0138C140.031 53.2111 138.01 53.8098 135.591 53.8098C133.62 53.8098 131.849 53.3732 130.277 52.5002C128.731 51.6022 127.509 50.355 126.611 48.7586C125.738 47.1372 125.301 45.2664 125.301 43.1462C125.301 41.0259 125.725 39.1676 126.573 37.5712C127.446 35.9498 128.656 34.7026 130.203 33.8295C131.774 32.9565 133.57 32.52 135.591 32.52C137.536 32.52 139.27 32.944 140.791 33.7921C142.313 34.6402 143.498 35.8375 144.346 37.3841C145.194 38.9057 145.618 40.6642 145.618 42.6598ZM141.166 41.3128C141.141 39.7413 140.579 38.4816 139.482 37.5337C138.384 36.5859 137.025 36.1119 135.403 36.1119C133.932 36.1119 132.672 36.5859 131.624 37.5337C130.577 38.4567 129.953 39.7164 129.754 41.3128H141.166ZM160.217 32.52C161.839 32.52 163.285 32.8567 164.558 33.5302C165.855 34.2037 166.865 35.2015 167.588 36.5235C168.312 37.8455 168.673 39.442 168.673 41.3128V53.473H164.445V41.9488C164.445 40.103 163.984 38.6936 163.061 37.7208C162.138 36.7231 160.878 36.2242 159.282 36.2242C157.686 36.2242 156.413 36.7231 155.466 37.7208C154.543 38.6936 154.081 40.103 154.081 41.9488V53.473H149.816V32.8567H154.081V35.2139C154.78 34.3658 155.665 33.7048 156.738 33.2309C157.835 32.7569 158.995 32.52 160.217 32.52ZM172.692 43.0713C172.692 41.001 173.116 39.1676 173.965 37.5712C174.838 35.9747 176.01 34.74 177.482 33.867C178.978 32.969 180.637 32.52 182.458 32.52C183.805 32.52 185.127 32.8193 186.424 33.418C187.746 33.9917 188.794 34.7649 189.567 35.7378V25.7851H193.87V53.473H189.567V50.3675C188.869 51.3652 187.896 52.1884 186.649 52.8369C185.426 53.4855 184.017 53.8098 182.421 53.8098C180.625 53.8098 178.978 53.3608 177.482 52.4628C176.01 51.5399 174.838 50.2677 173.965 48.6463C173.116 47 172.692 45.1417 172.692 43.0713ZM189.567 43.1462C189.567 41.7244 189.268 40.4896 188.669 39.442C188.095 38.3943 187.335 37.5961 186.387 37.0473C185.439 36.4986 184.416 36.2242 183.319 36.2242C182.221 36.2242 181.198 36.4986 180.25 37.0473C179.303 37.5712 178.529 38.3569 177.931 39.4045C177.357 40.4273 177.07 41.6495 177.07 43.0713C177.07 44.4931 177.357 45.7404 177.931 46.8129C178.529 47.8855 179.303 48.7087 180.25 49.2824C181.223 49.8312 182.246 50.1056 183.319 50.1056C184.416 50.1056 185.439 49.8312 186.387 49.2824C187.335 48.7336 188.095 47.9354 188.669 46.8878C189.268 45.8152 189.567 44.568 189.567 43.1462ZM208.415 53.8098C206.469 53.8098 204.711 53.3732 203.139 52.5002C201.568 51.6022 200.333 50.355 199.435 48.7586C198.537 47.1372 198.088 45.2664 198.088 43.1462C198.088 41.0509 198.55 39.1925 199.472 37.5712C200.395 35.9498 201.655 34.7026 203.251 33.8295C204.848 32.9565 206.631 32.52 208.602 32.52C210.573 32.52 212.356 32.9565 213.953 33.8295C215.549 34.7026 216.809 35.9498 217.732 37.5712C218.654 39.1925 219.116 41.0509 219.116 43.1462C219.116 45.2415 218.642 47.0998 217.694 48.7212C216.746 50.3425 215.449 51.6022 213.803 52.5002C212.181 53.3732 210.385 53.8098 208.415 53.8098ZM208.415 50.1056C209.512 50.1056 210.535 49.8437 211.483 49.3198C212.456 48.796 213.242 48.0103 213.84 46.9626C214.439 45.915 214.738 44.6428 214.738 43.1462C214.738 41.6495 214.451 40.3898 213.878 39.3671C213.304 38.3195 212.543 37.5337 211.595 37.0099C210.647 36.4861 209.625 36.2242 208.527 36.2242C207.43 36.2242 206.407 36.4861 205.459 37.0099C204.536 37.5337 203.8 38.3195 203.251 39.3671C202.703 40.3898 202.428 41.6495 202.428 43.1462C202.428 45.3662 202.99 47.0873 204.112 48.3096C205.259 49.5069 206.694 50.1056 208.415 50.1056ZM227.598 35.85C228.222 34.8024 229.045 33.9917 230.067 33.418C231.115 32.8193 232.35 32.52 233.772 32.52V36.9351H232.687C231.015 36.9351 229.743 37.3591 228.87 38.2072C228.022 39.0553 227.598 40.527 227.598 42.6223V53.473H223.333V32.8567H227.598V35.85ZM236.271 43.0713C236.271 41.001 236.695 39.1676 237.543 37.5712C238.416 35.9747 239.588 34.74 241.06 33.867C242.557 32.969 244.203 32.52 245.999 32.52C247.62 32.52 249.03 32.8443 250.227 33.4928C251.449 34.1164 252.422 34.9021 253.145 35.85V32.8567H257.448V53.473H253.145V50.4049C252.422 51.3777 251.437 52.1884 250.189 52.8369C248.942 53.4855 247.52 53.8098 245.924 53.8098C244.153 53.8098 242.532 53.3608 241.06 52.4628C239.588 51.5399 238.416 50.2677 237.543 48.6463C236.695 47 236.271 45.1417 236.271 43.0713ZM253.145 43.1462C253.145 41.7244 252.846 40.4896 252.247 39.442C251.674 38.3943 250.913 37.5961 249.965 37.0473C249.017 36.4986 247.994 36.2242 246.897 36.2242C245.799 36.2242 244.777 36.4986 243.829 37.0473C242.881 37.5712 242.108 38.3569 241.509 39.4045C240.935 40.4273 240.648 41.6495 240.648 43.0713C240.648 44.4931 240.935 45.7404 241.509 46.8129C242.108 47.8855 242.881 48.7087 243.829 49.2824C244.802 49.8312 245.824 50.1056 246.897 50.1056C247.994 50.1056 249.017 49.8312 249.965 49.2824C250.913 48.7336 251.674 47.9354 252.247 46.8878C252.846 45.8152 253.145 44.568 253.145 43.1462Z" fill="white"/>
<rect opacity="0.2" width="74.8323" height="74.8323" rx="37.4161" fill="white"/>
<rect x="32.7393" y="31.1801" width="49.8882" height="49.8882" rx="24.9441" fill="white"/>
</svg>
